<?xml version="1.0" encoding="utf-8"?>
<!-- Generator: Adobe Illustrator 16.0.0, SVG Export Plug-In . SVG Version: 6.00 Build 0)  -->
<!DOCTYPE svg PUBLIC "-//W3C//DTD SVG 1.1//EN" "http://www.w3.org/Graphics/SVG/1.1/DTD/svg11.dtd">
<svg version="1.1" id="Layer_1" xmlns="http://www.w3.org/2000/svg" xmlns:xlink="http://www.w3.org/1999/xlink" x="0px" y="0px"
	 width="388px" height="189.871px" viewBox="0 0 388 189.871" enable-background="new 0 0 388 189.871" xml:space="preserve">
<g>
	<path fill="#FFFFFF" d="M201.516,79.843c0,0.211,0,0.421,0,0.63c0,4.715,0,9.43,0,14.146c0,0.115,0,0.23,0,0.345
		c-0.004,0.5-0.004,0.503-0.504,0.504c-1.494,0-2.99,0-4.488,0c-0.479-0.001-0.483-0.008-0.483-0.521c0-7.36,0-14.72,0-22.079
		c0-0.5,0.004-0.506,0.496-0.506c2.047-0.001,4.104,0.013,6.153-0.012c0.387-0.005,0.574,0.142,0.771,0.445
		c2.547,4.031,5.111,8.052,7.676,12.077c0.106,0.167,0.186,0.36,0.447,0.553c0-0.288,0-0.488,0-0.688c0-3.912,0-7.821,0-11.73
		c0-0.71-0.078-0.645,0.645-0.645c1.402-0.001,2.807-0.001,4.205,0c0.701,0,0.623-0.049,0.623,0.603c0.004,2.129,0,4.258,0,6.383
		c0,5.158,0.004,10.311,0,15.469c0,0.692,0.086,0.651-0.645,0.651c-1.533,0-3.068-0.018-4.6,0.011
		c-0.377,0.006-0.578-0.127-0.771-0.441c-3.013-4.895-6.039-9.78-9.06-14.667c-0.119-0.191-0.241-0.377-0.36-0.564
		C201.586,79.817,201.553,79.834,201.516,79.843z"/>
	<path fill="#FFFFFF" d="M260.208,85.384c0-0.201,0-0.401,0-0.604c0-3.929,0-7.855,0-11.787c0-0.702-0.09-0.627,0.66-0.632
		c1.437-0.004,2.872-0.001,4.308,0c0.497,0.002,0.502,0.006,0.502,0.507c0,2.492,0,4.982,0,7.473c0,4.813,0,9.624,0,14.433
		c0,0.776,0.045,0.692-0.666,0.693c-1.514,0-3.031-0.018-4.545,0.01c-0.398,0.008-0.615-0.128-0.82-0.463
		c-3.021-4.908-6.061-9.811-9.088-14.71c-0.109-0.172-0.185-0.373-0.442-0.569c0,0.279,0,0.481,0,0.681c0,4.732,0,9.467,0,14.201
		c0,0.117,0,0.232,0,0.347c-0.009,0.496-0.009,0.503-0.509,0.504c-1.453,0-2.912,0-4.369,0c-0.566,0-0.57-0.004-0.57-0.554
		c0-1.532,0-3.065,0-4.599c0-5.768,0-11.539,0-17.305c0-0.718-0.086-0.646,0.641-0.648c1.993-0.004,3.987,0.008,5.981-0.01
		c0.373-0.002,0.578,0.113,0.778,0.429c2.549,4.03,5.113,8.054,7.673,12.074c0.122,0.184,0.25,0.367,0.378,0.55
		C260.146,85.398,260.175,85.392,260.208,85.384z"/>
	<path fill="#FFFFFF" d="M222.948,83.885c0-3.599,0-7.206,0-10.808c0-0.136,0.004-0.271,0-0.403c-0.017-0.213,0.062-0.33,0.29-0.313
		c0.115,0.009,0.229,0,0.342,0c5.156,0,10.311,0,15.467,0c0.078,0,0.16,0.009,0.232-0.003c0.313-0.045,0.396,0.098,0.391,0.394
		c-0.012,1.186-0.004,2.375-0.008,3.565c0,0.505-0.004,0.507-0.501,0.509c-2.203,0.002-4.406,0-6.613,0
		c-1.073,0-2.146-0.002-3.221,0.002c-0.427,0.002-0.431,0.009-0.435,0.45c-0.004,1.013-0.004,2.031,0,3.045
		c0,0.465,0.008,0.473,0.467,0.473c2.104,0.001,4.219,0.001,6.326,0.001c0.937,0,1.875,0.008,2.814-0.006
		c0.296-0.006,0.406,0.084,0.402,0.388c-0.014,1.23-0.004,2.454-0.01,3.681c0,0.402-0.008,0.409-0.414,0.409
		c-2.207,0.004-4.41,0.004-6.612,0.004c-0.861,0-1.728,0.01-2.589-0.008c-0.305-0.006-0.395,0.09-0.395,0.39
		c0.018,1.629,0.004,3.257,0.008,4.886c0,0.446,0.01,0.454,0.492,0.454c2.479,0.002,4.948,0,7.422,0c0.82,0,1.646,0.014,2.471-0.007
		c0.308-0.004,0.397,0.095,0.394,0.396c-0.012,1.205-0.004,2.413-0.008,3.622c-0.004,0.455-0.009,0.463-0.488,0.463
		c-3.313,0-6.634,0-9.948,0c-1.916,0-3.836,0-5.757,0c-0.517,0-0.521-0.004-0.521-0.542
		C222.948,91.248,222.948,87.568,222.948,83.885z"/>
	<path fill="#FFFFFF" d="M57.215,73.393c0.513-0.153,0.972-0.017,1.436,0.038c1.957,0.236,3.91,0.501,5.862,0.752
		c1.941,0.247,3.873,0.488,5.81,0.731c1.903,0.238,3.799,0.48,5.698,0.716c0.279,0.036,0.505,0.17,0.727,0.328
		c4.049,2.896,8.094,5.793,12.152,8.687c6.137,4.388,12.279,8.775,18.417,13.166c0.168,0.121,0.357,0.201,0.529,0.506
		C90.901,89.973,74.06,81.684,57.215,73.393z"/>
	<path fill="#FFFFFF" d="M161.52,73.163c-0.82,0.554-49.74,24.769-50.191,24.854c0.037-0.23,0.234-0.291,0.377-0.395
		c3.684-2.65,7.373-5.3,11.057-7.95c6.314-4.542,12.628-9.08,18.942-13.626c0.361-0.262,0.73-0.431,1.189-0.486
		c2.281-0.276,4.558-0.585,6.835-0.884c2.203-0.288,4.402-0.582,6.605-0.87c1.551-0.204,3.114-0.409,4.669-0.607
		C161.134,73.181,161.265,73.18,161.52,73.163z"/>
	<path fill="#FFFFFF" d="M107.903,97.811c-0.993-0.726-1.887-1.557-2.827-2.347c-8.784-7.446-17.559-14.896-26.338-22.345
		c-0.644-0.545-1.289-1.089-1.924-1.639c-0.115-0.096-0.258-0.168-0.299-0.364c0.554,0.052,1.063,0.242,1.571,0.378
		c4.373,1.179,8.751,2.369,13.124,3.547c0.394,0.104,0.669,0.304,0.903,0.631c5.177,7.201,10.363,14.395,15.549,21.589
		c0.115,0.152,0.209,0.321,0.308,0.48C107.948,97.762,107.923,97.786,107.903,97.811z"/>
	<path fill="#FFFFFF" d="M110.758,97.663c0.55-0.899,1.202-1.726,1.818-2.581c4.66-6.47,9.325-12.935,13.981-19.405
		c0.226-0.312,0.472-0.502,0.854-0.605c4.804-1.288,9.608-2.59,14.408-3.894c0.111-0.029,0.213-0.08,0.336-0.035
		c-0.041,0.209-0.234,0.293-0.374,0.413c-6.913,5.865-13.826,11.73-20.738,17.592c-3.184,2.708-6.372,5.408-9.563,8.112
		c-0.201,0.172-0.414,0.334-0.624,0.502C110.824,97.729,110.791,97.695,110.758,97.663z"/>
	<path fill="#FFFFFF" d="M109.995,97.471c0.697-2.666,1.391-5.331,2.088-7.997c1.026-3.901,2.064-7.803,3.073-11.713
		c0.115-0.428,0.32-0.673,0.722-0.859c3.291-1.532,6.577-3.086,9.863-4.636c0.152-0.072,0.312-0.142,0.476-0.215
		c0.065,0.148-0.037,0.222-0.086,0.303c-5.276,8.312-10.556,16.621-15.828,24.931c-0.045,0.063-0.09,0.121-0.14,0.182
		C110.11,97.468,110.052,97.471,109.995,97.471z"/>
	<path fill="#FFFFFF" d="M108.612,97.583c-1.054-1.642-2.113-3.284-3.159-4.932c-4.258-6.688-8.513-13.375-12.767-20.066
		c-0.09-0.14-0.217-0.264-0.246-0.462c0.209-0.006,0.361,0.118,0.525,0.195c3.323,1.559,6.646,3.132,9.974,4.683
		c0.336,0.157,0.48,0.371,0.57,0.712c1.711,6.511,3.442,13.02,5.165,19.53c0.029,0.108,0.033,0.228,0.045,0.339
		C108.686,97.575,108.649,97.577,108.612,97.583z"/>
	<path fill="#FFFFFF" d="M114.935,69.526c-1.842,9.375-3.684,18.754-5.522,28.133c-0.045,0-0.083-0.003-0.124-0.003
		c-0.147-0.809-0.303-1.611-0.455-2.417c-0.837-4.477-1.658-8.957-2.507-13.433c-0.099-0.507-0.021-0.883,0.295-1.305
		c2.638-3.506,5.243-7.032,7.861-10.552c0.119-0.152,0.238-0.3,0.349-0.446C114.869,69.509,114.902,69.517,114.935,69.526z"/>
	<path fill="#FFFFFF" d="M73.703,100.663c0.053,0.229-0.062,0.373-0.131,0.526c-1.189,2.801-2.396,5.594-3.577,8.4
		c-0.152,0.355-0.328,0.518-0.718,0.471c-0.357-0.045-0.775,0.125-1.071-0.074c-0.287-0.194-0.336-0.627-0.484-0.957
		c-0.57-1.275-1.128-2.557-1.694-3.834c-0.078-0.168-0.123-0.363-0.271-0.496c-0.156,0.14-0.205,0.332-0.279,0.504
		c-0.656,1.449-1.321,2.891-1.957,4.35c-0.156,0.36-0.328,0.569-0.759,0.508c-0.353-0.053-0.767,0.125-1.063-0.074
		c-0.283-0.196-0.336-0.627-0.476-0.959c-1.087-2.594-2.174-5.19-3.257-7.787c-0.07-0.172-0.193-0.332-0.16-0.578
		c0.857,0,1.715,0.005,2.572-0.003c0.263-0.007,0.304,0.18,0.374,0.356c0.496,1.325,0.993,2.652,1.493,3.978
		c0.086,0.228,0.172,0.452,0.267,0.69c0.193-0.147,0.226-0.35,0.3-0.519c0.59-1.374,1.189-2.742,1.764-4.122
		c0.119-0.288,0.267-0.414,0.595-0.391c0.398,0.031,0.8,0.029,1.206,0c0.299-0.021,0.439,0.113,0.542,0.377
		c0.574,1.381,1.161,2.752,1.744,4.128c0.065,0.155,0.099,0.323,0.242,0.468c0.172-0.059,0.176-0.23,0.226-0.357
		c0.55-1.386,1.087-2.781,1.633-4.168c0.185-0.459,0.058-0.437,0.661-0.438C72.185,100.66,72.948,100.663,73.703,100.663z"/>
	<path fill="#FFFFFF" d="M113.63,100.663c0.89,0,1.731,0.009,2.576-0.007c0.295-0.006,0.324,0.201,0.398,0.394
		c0.513,1.361,1.021,2.722,1.542,4.084c0.062,0.168,0.074,0.373,0.254,0.498c0.168-0.153,0.209-0.366,0.287-0.553
		c0.586-1.331,1.165-2.665,1.719-4.011c0.131-0.317,0.304-0.438,0.64-0.416c0.357,0.029,0.726,0.033,1.091,0
		c0.365-0.03,0.525,0.123,0.661,0.459c0.57,1.402,1.169,2.789,1.76,4.182c0.053,0.123,0.111,0.242,0.177,0.387
		c0.144-0.101,0.168-0.244,0.221-0.375c0.554-1.406,1.116-2.81,1.649-4.225c0.123-0.325,0.279-0.439,0.624-0.428
		c0.767,0.024,1.53,0.009,2.281,0.009c0.106,0.221-0.025,0.362-0.09,0.512c-1.198,2.819-2.408,5.629-3.598,8.454
		c-0.147,0.344-0.332,0.466-0.685,0.432c-0.361-0.039-0.775,0.116-1.075-0.067c-0.304-0.181-0.349-0.618-0.493-0.944
		c-0.583-1.292-1.148-2.593-1.719-3.886c-0.07-0.151-0.103-0.323-0.263-0.446c-0.147,0.145-0.197,0.33-0.271,0.498
		c-0.665,1.463-1.342,2.923-1.986,4.4c-0.144,0.33-0.312,0.479-0.677,0.447c-0.263-0.027-0.538-0.02-0.804-0.004
		c-0.238,0.014-0.39-0.059-0.484-0.295c-1.23-2.951-2.465-5.9-3.696-8.85C113.65,100.863,113.654,100.803,113.63,100.663z"/>
	<path fill="#FFFFFF" d="M151.604,105.672c0-0.212,0-0.395,0-0.579c0-1.342,0-2.682,0-4.022c0.004-0.398,0.012-0.403,0.418-0.407
		c0.632-0.005,1.268-0.003,1.896,0c0.463,0.004,0.468,0.007,0.468,0.471c0.004,2.394,0.004,4.79,0.004,7.183
		c0,0.386,0,0.769-0.004,1.149c-0.004,0.456-0.004,0.459-0.484,0.464c-0.5,0.004-0.997-0.017-1.493,0.01
		c-0.357,0.019-0.603-0.097-0.849-0.362c-1.305-1.429-2.63-2.836-3.951-4.25c-0.131-0.136-0.23-0.304-0.418-0.386
		c-0.156,0.115-0.09,0.279-0.09,0.416c-0.004,1.324-0.004,2.646-0.004,3.966c0,0.639,0.066,0.608-0.636,0.606
		c-0.533,0-1.071,0.004-1.608,0c-0.537,0-0.542-0.002-0.542-0.522c-0.004-1.188,0-2.375,0-3.562c0-1.572-0.004-3.145,0-4.716
		c0-0.459,0.008-0.462,0.48-0.467c0.517-0.003,1.034,0.017,1.555-0.009c0.332-0.016,0.558,0.098,0.788,0.345
		c1.321,1.44,2.663,2.864,3.996,4.29C151.251,105.422,151.349,105.596,151.604,105.672z"/>
	<path fill="#FFFFFF" d="M101.117,105.277c0-1.398-0.004-2.797,0-4.195c0-0.407,0.008-0.414,0.406-0.418
		c0.652-0.005,1.301-0.003,1.957,0c0.415,0.004,0.418,0.007,0.418,0.459c0.008,0.804,0,1.607,0.004,2.413
		c0.004,0.508,0.004,0.514,0.493,0.516c1.091,0.005,2.187,0.005,3.278,0c0.443-0.004,0.451-0.012,0.451-0.44
		c0.008-0.842,0-1.688,0.004-2.531c0.004-0.404,0.012-0.411,0.41-0.416c0.627-0.005,1.264-0.003,1.896,0
		c0.467,0.004,0.476,0.007,0.476,0.463c0,2.148,0,4.296,0,6.443c0,0.671-0.008,1.343,0.004,2.012c0,0.234-0.062,0.35-0.324,0.348
		c-0.706-0.013-1.419-0.015-2.125,0.002c-0.3,0.004-0.345-0.137-0.341-0.387c0.008-0.865,0.008-1.725,0-2.589
		c-0.004-0.718,0.09-0.64-0.636-0.644c-1.059-0.002-2.113-0.002-3.167,0c-0.41,0.004-0.414,0.012-0.418,0.406
		c-0.004,0.922,0.004,1.842-0.004,2.762c0,0.434-0.008,0.44-0.443,0.441c-0.652,0.006-1.301-0.008-1.953,0.008
		c-0.299,0.004-0.394-0.094-0.394-0.394C101.125,108.118,101.117,106.697,101.117,105.277z"/>
	<path fill="#FFFFFF" d="M88.473,105.256c0-1.378,0-2.756,0-4.138c0-0.448,0.008-0.456,0.431-0.456c1.395,0,2.798,0.007,4.197,0.016
		c0.574,0.004,1.14,0.111,1.694,0.275c1.867,0.554,3.093,2.137,3.212,4.111c0.078,1.357-0.218,2.58-1.186,3.594
		c-0.714,0.742-1.571,1.146-2.584,1.227c-0.381,0.029-0.763,0.037-1.149,0.037c-1.395,0.006-2.793,0.006-4.193,0
		c-0.41,0-0.414-0.01-0.422-0.415c-0.004-0.246,0-0.496,0-0.747C88.473,107.594,88.473,106.426,88.473,105.256z M91.262,105.256
		c0,0.152,0,0.307,0,0.458c0,0.652,0,1.304,0,1.955c0,0.147-0.024,0.338,0.197,0.347c0.878,0.014,1.76,0.055,2.588-0.347
		c0.517-0.249,0.841-0.644,0.985-1.196c0.172-0.662,0.185-1.332,0.053-1.994c-0.201-1.011-0.804-1.654-1.838-1.881
		c-0.533-0.113-1.066-0.053-1.604-0.088c-0.3-0.021-0.398,0.092-0.39,0.393C91.271,103.686,91.262,104.473,91.262,105.256z"/>
	<path fill="#FFFFFF" d="M85.527,109.93c-0.939,0-1.776-0.004-2.609,0.004c-0.217,0-0.299-0.115-0.369-0.291
		c-0.156-0.41-0.349-0.811-0.484-1.224c-0.099-0.282-0.238-0.385-0.538-0.381c-1.091,0.017-2.183,0.017-3.278,0
		c-0.267-0.002-0.41,0.071-0.509,0.336c-0.152,0.431-0.345,0.849-0.513,1.274c-0.062,0.15-0.123,0.281-0.316,0.281
		c-0.85,0-1.707,0-2.548,0c-0.086-0.225,0.037-0.35,0.09-0.479c1.23-2.784,2.466-5.561,3.68-8.348
		c0.156-0.356,0.353-0.472,0.734-0.455c0.685,0.033,1.378,0.037,2.067,0c0.386-0.02,0.57,0.113,0.722,0.469
		c1.034,2.386,2.088,4.763,3.134,7.143C85.022,108.783,85.252,109.309,85.527,109.93z M81.26,106.407
		c-0.456-1.128-0.886-2.188-1.358-3.357c-0.48,1.192-0.903,2.252-1.354,3.357C79.467,106.407,80.321,106.407,81.26,106.407z"/>
	<path fill="#FFFFFF" d="M130.085,109.93c1.021-2.301,1.981-4.492,2.954-6.678c0.333-0.753,0.673-1.501,0.993-2.264
		c0.103-0.252,0.25-0.338,0.513-0.332c0.808,0.014,1.612,0.011,2.417,0.004c0.213-0.002,0.345,0.047,0.443,0.265
		c1.28,2.927,2.573,5.853,3.861,8.78c0.021,0.045,0.012,0.104,0.024,0.229c-0.591,0-1.161,0.006-1.727-0.002
		c-0.34-0.009-0.734,0.123-1.013-0.07c-0.271-0.189-0.288-0.607-0.439-0.911c-0.14-0.289-0.148-0.687-0.423-0.854
		c-0.246-0.156-0.595-0.044-0.898-0.048c-0.902-0.005-1.805,0.007-2.704-0.009c-0.271-0.004-0.418,0.084-0.509,0.338
		c-0.152,0.434-0.336,0.855-0.513,1.283c-0.058,0.145-0.123,0.27-0.32,0.27C131.887,109.926,131.029,109.93,130.085,109.93z
		 M137.101,106.414c-0.456-1.124-0.878-2.172-1.301-3.221c-0.041,0.008-0.078,0.013-0.119,0.017
		c-0.426,1.054-0.853,2.11-1.296,3.204C135.312,106.414,136.162,106.414,137.101,106.414z"/>
	<path fill="#FFFFFF" d="M158.094,105.273c0-1.399,0-2.797,0-4.192c0.004-0.409,0.013-0.414,0.415-0.418
		c0.652-0.007,1.3-0.005,1.953,0c0.443,0.001,0.443,0.007,0.456,0.43c0.004,0.459,0,0.919,0,1.38c0,2.317,0,4.633,0,6.949
		c0,0.504-0.012,0.51-0.497,0.514c-0.595,0.004-1.189,0-1.784,0c-0.538-0.004-0.542-0.004-0.542-0.525
		C158.094,108.029,158.094,106.652,158.094,105.273z"/>
	<path fill="#FFFFFF" d="M178.636,94.751c0-5.251,0-10.5,0-15.747c0-0.155,0.008-0.308,0-0.461
		c-0.004-0.207,0.111-0.258,0.291-0.256c0.168,0.002,0.308,0.028,0.304,0.242c0,0.134,0.004,0.27,0.004,0.402
		c0,10.593,0,21.186,0,31.78c0,0.114-0.008,0.229,0,0.346c0.012,0.235-0.111,0.289-0.32,0.286c-0.193-0.004-0.283-0.077-0.279-0.272
		c0.008-0.149,0-0.307,0-0.459C178.636,105.324,178.636,100.037,178.636,94.751z"/>
	<path fill="#FFFFFF" d="M304.568,111.203c0.137-0.021,0.188-0.042,0.242-0.042c0.584-0.021,0.584-0.021,0.73,0.53
		c0.336,1.334,0.669,2.67,1.014,4.002c0.028,0.13,0.036,0.271,0.192,0.361c0.36-1.435,0.718-2.854,1.069-4.279
		c0.014-0.058,0.021-0.114,0.041-0.168c0.107-0.428,0.437-0.594,0.847-0.437c0.164,0.062,0.147,0.208,0.181,0.331
		c0.268,1.038,0.524,2.078,0.779,3.117c0.123,0.48,0.246,0.962,0.369,1.449c0.197-0.068,0.172-0.238,0.209-0.373
		c0.328-1.317,0.656-2.635,0.992-3.951c0.164-0.652,0.164-0.652,0.933-0.521c-0.313,1.203-0.62,2.404-0.928,3.606
		c-0.192,0.722-0.397,1.44-0.554,2.166c-0.082,0.382-0.328,0.341-0.6,0.353c-0.279,0.014-0.456-0.037-0.538-0.361
		c-0.327-1.373-0.685-2.744-1.028-4.118c-0.037-0.146-0.051-0.3-0.201-0.442c-0.32,1.287-0.633,2.542-0.948,3.799
		c-0.054,0.239-0.103,0.487-0.177,0.723c-0.045,0.136-0.008,0.345-0.204,0.376c-0.242,0.042-0.497,0.058-0.738-0.017
		c-0.062-0.021-0.11-0.15-0.136-0.238C305.607,115.128,305.091,113.188,304.568,111.203z"/>
	<path fill="#FFFFFF" d="M101.499,120.186c-0.09,0.025-0.127,0.043-0.168,0.045c-0.911,0.043-0.911,0.043-1.358-0.76
		c-0.644-1.174-1.292-2.347-1.94-3.521c-0.086-0.158-0.185-0.314-0.374-0.455c0,0.184,0,0.365,0,0.547
		c0,1.266,0.008,2.529-0.004,3.795c0,0.137,0.09,0.342-0.131,0.379c-0.226,0.04-0.459,0.069-0.677-0.029
		c-0.09-0.037-0.066-0.168-0.066-0.263c0-1.801,0-3.603-0.008-5.405c0-0.211,0.069-0.326,0.299-0.312
		c0.074,0.004,0.156,0.01,0.226-0.002c0.476-0.078,0.755,0.094,0.989,0.548c0.599,1.195,1.272,2.355,1.916,3.529
		c0.103,0.185,0.213,0.361,0.312,0.541c0.213-0.074,0.127-0.232,0.127-0.344c0.004-1.304,0.004-2.605,0.004-3.91
		c0-0.123-0.053-0.309,0.123-0.34c0.218-0.041,0.459-0.078,0.669,0.028c0.094,0.048,0.062,0.173,0.062,0.269
		C101.499,116.4,101.499,118.279,101.499,120.186z"/>
	<path fill="#FFFFFF" d="M292.027,111.182c0.309-0.022,0.518-0.058,0.734,0.028c0,2.028,0,4.056,0,6.085
		c-0.078,0.018-0.132,0.037-0.188,0.044c-0.541,0.084-0.89-0.08-1.152-0.634c-0.673-1.395-1.437-2.751-2.167-4.118
		c-0.086-0.167-0.143-0.356-0.299-0.487c-0.186,0.07-0.096,0.23-0.096,0.336c-0.008,1.5-0.004,2.996-0.008,4.488
		c0,0.417-0.023,0.411-0.41,0.424c-0.278,0.008-0.368-0.09-0.364-0.367c0.004-1.82,0.004-3.641,0-5.463
		c-0.004-0.271,0.086-0.359,0.36-0.367c0.902-0.024,0.902-0.037,1.316,0.744c0.615,1.17,1.23,2.34,1.854,3.506
		c0.082,0.162,0.137,0.35,0.383,0.52c0.072-0.829,0.027-1.596,0.035-2.363C292.032,112.773,292.027,111.99,292.027,111.182z"/>
	<path fill="#FFFFFF" d="M140.56,115.506c0,0.742,0,1.484,0,2.227c0,0.652,0,1.305,0,1.953c0,0.525-0.234,0.693-0.739,0.541
		c-0.078-0.025-0.135-0.063-0.139-0.15c-0.004-0.094-0.008-0.191-0.008-0.287c0-1.703,0-3.408,0-5.112
		c0-0.461,0.008-0.461,0.48-0.472c0.053,0,0.115,0.009,0.168,0c0.394-0.064,0.616,0.104,0.804,0.46
		c0.644,1.217,1.313,2.42,1.978,3.625c0.099,0.177,0.164,0.377,0.349,0.51c0.156-0.194,0.09-0.393,0.09-0.573
		c0.008-1.188,0-2.373,0.008-3.562c0-0.146-0.078-0.345,0.086-0.415c0.209-0.091,0.459-0.092,0.669,0
		c0.164,0.077,0.086,0.279,0.086,0.419c0.004,1.705,0.004,3.407,0.004,5.113c0,0.056-0.004,0.116,0,0.174
		c0.012,0.179-0.049,0.297-0.259,0.278c-0.053-0.006-0.111-0.01-0.168,0.002c-0.509,0.098-0.775-0.131-1.014-0.584
		c-0.644-1.26-1.354-2.486-2.039-3.729c-0.078-0.147-0.164-0.29-0.25-0.437C140.629,115.493,140.596,115.5,140.56,115.506z"/>
	<path fill="#FFFFFF" d="M202.164,112.04c-0.123,0.267-0.078,0.46-0.078,0.642c-0.004,1.416,0,2.836-0.004,4.254
		c-0.004,0.399-0.033,0.399-0.428,0.412c-0.286,0.014-0.359-0.104-0.355-0.367c0.008-1.819,0.008-3.64-0.004-5.461
		c0-0.271,0.082-0.362,0.359-0.371c0.892-0.023,0.892-0.037,1.311,0.754c0.631,1.184,1.256,2.365,1.887,3.551
		c0.09,0.161,0.181,0.32,0.377,0.47c0-0.142,0-0.28,0-0.42c0-1.284,0-2.567,0-3.853c0-0.488,0.104-0.566,0.566-0.492
		c0.141,0.021,0.209,0.074,0.213,0.213c0.006,0.115,0.006,0.229,0.006,0.345c0,1.705,0,3.41,0,5.116c0,0.509-0.01,0.48-0.488,0.521
		c-0.406,0.033-0.611-0.123-0.797-0.479c-0.729-1.433-1.498-2.845-2.252-4.267C202.391,112.441,202.295,112.277,202.164,112.04z"/>
	<path fill="#FFFFFF" d="M223.908,101.752c-0.127,0.284-0.092,0.477-0.092,0.659c-0.004,1.377,0,2.76-0.004,4.14
		c0,0.475-0.023,0.487-0.472,0.475c-0.218-0.004-0.308-0.062-0.308-0.293c0.008-1.934,0.004-3.871,0.004-5.808
		c0.378-0.103,0.723-0.034,1.063-0.055c0.283-0.017,0.334,0.223,0.424,0.399c0.692,1.301,1.383,2.605,2.076,3.906
		c0.086,0.164,0.18,0.321,0.364,0.467c0-0.16,0-0.322,0-0.48c0-1.287,0-2.57,0-3.852c0.004-0.394,0.319-0.588,0.677-0.418
		c0.078,0.037,0.106,0.096,0.106,0.181c0,0.116,0.004,0.228,0.004,0.345c0,1.686,0,3.373-0.004,5.061c0,0.545,0,0.516-0.509,0.558
		c-0.414,0.034-0.607-0.14-0.783-0.488c-0.727-1.417-1.484-2.812-2.229-4.214C224.139,102.164,224.043,102,223.908,101.752z"/>
	<path fill="#FFFFFF" d="M241.236,112.072c0,1.607,0,3.216,0,4.82c0,0.455-0.021,0.45-0.438,0.455c-0.263,0-0.328-0.111-0.328-0.345
		c0.004-1.838,0.008-3.676,0-5.517c0-0.243,0.09-0.323,0.34-0.332c0.902-0.038,0.902-0.047,1.342,0.779
		c0.629,1.185,1.252,2.369,1.884,3.549c0.087,0.158,0.128,0.355,0.39,0.5c0-0.229,0-0.41,0-0.592c0-1.283-0.004-2.567,0-3.85
		c0-0.378,0.021-0.367,0.387-0.384c0.274-0.015,0.373,0.073,0.369,0.353c-0.017,0.633-0.009,1.266-0.009,1.896
		c0,1.111,0.004,2.222,0,3.332c0,0.188,0.037,0.385-0.054,0.563c-0.919,0.102-0.919,0.102-1.329-0.67
		c-0.722-1.37-1.448-2.738-2.174-4.107c-0.087-0.162-0.185-0.323-0.275-0.482C241.303,112.051,241.271,112.059,241.236,112.072z"/>
	<path fill="#FFFFFF" d="M199.781,105.673c0.139-0.276,0.09-0.47,0.09-0.657c0.008-1.244,0-2.49,0.008-3.736
		c0-0.358,0.313-0.545,0.645-0.396c0.082,0.037,0.11,0.103,0.11,0.181c0.005,0.078,0.005,0.154,0.005,0.231
		c0,1.763,0.004,3.526,0,5.289c0,0.433-0.009,0.406-0.443,0.447c-0.413,0.04-0.645-0.101-0.838-0.485
		c-0.709-1.402-1.459-2.783-2.197-4.168c-0.105-0.204-0.219-0.402-0.333-0.605c-0.192,0.08-0.11,0.233-0.11,0.343
		c-0.004,1.497,0,2.991-0.004,4.487c-0.005,0.424-0.013,0.428-0.402,0.42c-0.359-0.004-0.377-0.008-0.381-0.398
		c0-1.781,0-3.563,0-5.346c0-0.395,0.018-0.395,0.432-0.405c0.849-0.026,0.849-0.026,1.25,0.737
		c0.629,1.187,1.256,2.371,1.884,3.556C199.57,105.311,199.658,105.454,199.781,105.673z"/>
	<path fill="#FFFFFF" d="M134.364,120.361c-0.312-0.002-0.615-0.004-0.923-0.008c-0.012-0.011-0.029-0.022-0.045-0.026
		c-1.842-0.558-2.663-1.92-2.318-3.806c0.3-1.646,1.67-2.836,3.779-2.28c1.021,0.265,1.596,1.003,1.854,1.995
		c0.177,0.656,0.172,1.328,0,1.986c-0.279,1.088-0.943,1.807-2.076,2.045C134.545,120.285,134.455,120.33,134.364,120.361z
		 M135.907,117.291c0-0.462-0.054-0.896-0.242-1.305c-0.349-0.727-0.919-1.117-1.715-1.123c-0.829-0.006-1.424,0.388-1.764,1.146
		c-0.292,0.674-0.32,1.369-0.123,2.072c0.254,0.956,0.911,1.477,1.846,1.48c0.952,0.006,1.592-0.492,1.883-1.443
		C135.878,117.84,135.882,117.557,135.907,117.291z"/>
	<path fill="#FFFFFF" d="M104.834,117.241c0-0.882,0.008-1.763-0.008-2.642c-0.004-0.304,0.099-0.408,0.394-0.398
		c0.652,0.021,1.309-0.023,1.957,0.041c1.592,0.164,2.683,1.381,2.671,2.984c-0.012,1.785-1.091,2.916-2.868,3
		c-0.574,0.025-1.149,0.014-1.723,0.01c-0.414-0.004-0.418-0.01-0.422-0.406C104.83,118.964,104.834,118.104,104.834,117.241z
		 M105.716,117.191c0,0.647,0.004,1.301,0,1.951c-0.004,0.201,0.045,0.328,0.283,0.318c0.418-0.02,0.845,0.01,1.259-0.05
		c0.706-0.103,1.248-0.463,1.494-1.173c0.213-0.611,0.25-1.237,0.041-1.854c-0.234-0.701-0.722-1.152-1.448-1.338
		c-0.435-0.111-0.866-0.07-1.313-0.09c-0.254-0.012-0.32,0.111-0.316,0.346C105.72,115.93,105.716,116.563,105.716,117.191z"/>
	<path fill="#FFFFFF" d="M83.406,120.352c-0.303,0.004-0.611,0.008-0.919,0.012c-0.053-0.021-0.103-0.049-0.16-0.057
		c-1.305-0.213-2.293-1.225-2.331-3.033c-0.008-0.363,0.037-0.727,0.131-1.08c0.381-1.385,1.444-2.131,2.97-2.078
		c1.358,0.049,2.343,0.914,2.63,2.281c0.135,0.648,0.123,1.293-0.062,1.927c-0.295,1.01-0.936,1.69-1.99,1.929
		C83.586,120.271,83.5,120.316,83.406,120.352z M84.895,117.251c0.004-0.401-0.057-0.757-0.193-1.099
		c-0.312-0.829-0.939-1.284-1.772-1.295c-0.845-0.008-1.522,0.466-1.83,1.308c-0.242,0.667-0.25,1.349-0.029,2.022
		c0.3,0.94,0.956,1.402,1.924,1.375c0.89-0.026,1.551-0.574,1.785-1.496C84.854,117.789,84.912,117.506,84.895,117.251z"/>
	<path fill="#FFFFFF" d="M215.674,114.656c0.76,0.883,1.485,1.734,2.299,2.687c-0.395,0-0.652-0.004-0.916,0
		c-0.205,0-0.291-0.163-0.402-0.291c-0.495-0.583-0.983-1.171-1.477-1.755c-0.313-0.367-0.898-0.535-1.328-0.393
		c-0.182,0.06-0.147,0.203-0.147,0.326c-0.009,0.537,0,1.074-0.004,1.609c-0.005,0.475-0.228,0.631-0.679,0.499
		c-0.109-0.032-0.155-0.099-0.16-0.2c-0.008-0.117-0.008-0.234-0.008-0.35c0-1.682,0-3.368,0-5.055c0-0.668,0.004-0.586,0.601-0.576
		c0.651,0.007,1.304-0.051,1.948,0.063c0.714,0.123,1.271,0.439,1.455,1.19c0.197,0.813-0.094,1.547-0.771,2.007
		C215.966,114.493,215.852,114.555,215.674,114.656z M213.691,113.012c0.006,0,0.006,0,0.006,0c0,0.303,0,0.61,0,0.914
		c0,0.154,0.057,0.26,0.225,0.264c0.443,0.012,0.887,0.028,1.313-0.078c0.529-0.135,0.828-0.607,0.801-1.235
		c-0.018-0.549-0.287-0.834-0.878-0.953c-0.378-0.077-0.763-0.044-1.138-0.06c-0.263-0.01-0.336,0.113-0.328,0.344
		C213.701,112.475,213.691,112.742,213.691,113.012z"/>
	<path fill="#FFFFFF" d="M322.871,114.656c0.398,0.464,0.759,0.887,1.12,1.307c0.36,0.421,0.718,0.84,1.091,1.27
		c-0.688,0.24-0.928,0.178-1.341-0.319c-0.472-0.558-0.939-1.116-1.411-1.67c-0.268-0.313-0.928-0.476-1.297-0.334
		c-0.172,0.065-0.141,0.212-0.141,0.334c-0.004,0.538,0,1.075-0.004,1.61c0,0.457-0.25,0.625-0.688,0.481
		c-0.14-0.044-0.147-0.151-0.155-0.269c0-0.326,0-0.649,0-0.979c0-1.49-0.005-2.984,0-4.48c0.008-0.441,0.012-0.455,0.441-0.448
		c0.689,0.008,1.38-0.056,2.063,0.056c0.854,0.139,1.371,0.561,1.507,1.208c0.18,0.851-0.115,1.565-0.838,2.034
		C323.126,114.518,323.023,114.57,322.871,114.656z M320.891,113.032c0,1.305,0.017,1.317,1.338,1.116
		c0.035-0.004,0.076-0.008,0.113-0.018c0.579-0.121,0.902-0.57,0.895-1.217c-0.008-0.583-0.278-0.883-0.897-0.99
		c-0.192-0.035-0.382-0.056-0.569-0.056c-1.025,0.009-0.861-0.14-0.879,0.878C320.891,112.841,320.891,112.938,320.891,113.032z"/>
	<path fill="#FFFFFF" d="M218.891,107.152c-1.473,0.004-2.457-0.775-2.776-2.232c-0.16-0.744-0.144-1.486,0.065-2.219
		c0.327-1.137,1.145-1.809,2.31-1.932c1.765-0.188,2.971,0.768,3.204,2.523c0.07,0.479,0.058,0.953-0.018,1.432
		C221.455,106.238,220.417,107.145,218.891,107.152z M220.872,103.961c0.024-0.493-0.041-0.984-0.267-1.439
		c-0.342-0.701-0.902-1.054-1.69-1.062c-0.808-0.01-1.424,0.31-1.752,1.048c-0.418,0.934-0.422,1.905-0.024,2.84
		c0.328,0.762,0.957,1.107,1.789,1.094c0.813-0.016,1.379-0.397,1.711-1.127C220.831,104.891,220.893,104.438,220.872,103.961z"/>
	<path fill="#FFFFFF" d="M318.752,114.256c0.021,0.371-0.023,0.729-0.109,1.085c-0.324,1.31-1.293,2.093-2.639,2.126
		c-1.434,0.03-2.449-0.695-2.818-2.04c-0.229-0.827-0.218-1.666,0.041-2.485c0.39-1.235,1.346-1.912,2.688-1.906
		c1.325,0.002,2.289,0.693,2.671,1.924C318.721,113.382,318.775,113.816,318.752,114.256z M313.907,114.242
		c-0.021,0.406,0.028,0.822,0.168,1.225c0.291,0.813,0.983,1.301,1.847,1.289c0.842-0.006,1.51-0.466,1.788-1.271
		c0.283-0.823,0.283-1.657-0.004-2.477c-0.283-0.805-0.948-1.257-1.793-1.265c-0.861-0.005-1.552,0.474-1.838,1.297
		C313.939,113.421,313.887,113.818,313.907,114.242z"/>
	<path fill="#FFFFFF" d="M246.813,114.227c0-0.879-0.004-1.761,0-2.641c0.01-0.419,0.014-0.427,0.402-0.429
		c1.087-0.005,2.18-0.003,3.27,0c0.129,0,0.305-0.054,0.365,0.094c0.07,0.172,0.074,0.382,0,0.558
		c-0.064,0.147-0.232,0.098-0.365,0.102c-0.726,0.004-1.455,0.002-2.178,0.002c-0.136,0-0.271,0.004-0.402,0
		c-0.168-0.005-0.254,0.059-0.254,0.232c0,0.039,0,0.076,0,0.113c0.029,0.418-0.164,0.939,0.082,1.223
		c0.229,0.267,0.75,0.078,1.152,0.088c0.551,0.016,1.107,0.019,1.661-0.002c0.304-0.008,0.341,0.139,0.345,0.386
		c0.004,0.259-0.058,0.386-0.349,0.381c-0.824-0.011-1.646-0.006-2.474,0c-0.41,0-0.414,0.008-0.42,0.403
		c-0.004,0.496,0.01,0.996-0.004,1.492c-0.012,0.274,0.082,0.369,0.361,0.365c0.805-0.018,1.604-0.011,2.412-0.004
		c0.464,0.004,0.469,0.023,0.469,0.424c0.004,0.246-0.087,0.336-0.332,0.334c-1.129-0.008-2.262-0.012-3.39,0.002
		c-0.283,0.002-0.36-0.101-0.356-0.367c0.012-0.819,0.004-1.645,0.004-2.467C246.813,114.419,246.813,114.324,246.813,114.227z"/>
	<path fill="#FFFFFF" d="M195.928,114.244c0-0.901,0.01-1.803-0.008-2.702c-0.004-0.3,0.107-0.396,0.402-0.394
		c1.107,0.012,2.224,0.012,3.326,0.002c0.274-0.002,0.387,0.076,0.373,0.358c-0.017,0.358-0.021,0.396-0.386,0.397
		c-0.804,0.009-1.604,0-2.411,0.005c-0.439,0.004-0.447,0.012-0.447,0.444c0,0.379-0.156,0.855,0.062,1.117
		c0.226,0.272,0.722,0.079,1.097,0.092c0.521,0.021,1.037,0.002,1.555,0.004c0.521,0.004,0.525,0.008,0.525,0.365
		c0.004,0.383-0.01,0.394-0.555,0.394c-0.747,0.004-1.498-0.004-2.244,0.004c-0.432,0.003-0.436,0.008-0.439,0.446
		c-0.008,0.421-0.004,0.842,0,1.265c0,0.538,0,0.542,0.519,0.542c0.767,0.005,1.533-0.002,2.297,0.005
		c0.41,0.004,0.451,0.065,0.427,0.472c-0.009,0.229-0.113,0.287-0.318,0.287c-1.149-0.005-2.303-0.009-3.447,0
		c-0.262,0.002-0.328-0.111-0.328-0.346C195.928,116.084,195.928,115.165,195.928,114.244z"/>
	<path fill="#FFFFFF" d="M218.792,117.343c0-2.071,0-4.112,0-6.187c1.269,0,2.511,0.004,3.75-0.004
		c0.3-0.002,0.278,0.187,0.283,0.384c0.004,0.206-0.005,0.378-0.287,0.375c-0.729-0.007-1.461,0-2.187,0
		c-0.152,0-0.305,0.008-0.461,0c-0.209-0.011-0.314,0.063-0.308,0.293c0.017,0.327,0.021,0.651,0,0.978
		c-0.017,0.289,0.065,0.402,0.377,0.396c0.806-0.021,1.612-0.012,2.413-0.006c0.451,0.002,0.455,0.029,0.455,0.439
		c-0.004,0.264-0.127,0.319-0.354,0.319c-0.824-0.008-1.646-0.006-2.47,0c-0.405,0-0.419,0.008-0.419,0.407
		c-0.004,0.5,0.014,0.996-0.004,1.492c-0.014,0.278,0.09,0.365,0.365,0.361c0.804-0.018,1.604-0.011,2.408-0.004
		c0.459,0.004,0.492,0.057,0.468,0.482c-0.013,0.193-0.082,0.275-0.279,0.275C221.303,117.343,220.061,117.343,218.792,117.343z"/>
	<path fill="#FFFFFF" d="M294.42,114.252c0-0.896,0.012-1.799-0.004-2.695c-0.005-0.281,0.061-0.412,0.385-0.408
		c1.108,0.019,2.221,0.013,3.327,0.004c0.267-0.004,0.392,0.063,0.374,0.352c-0.009,0.371-0.009,0.4-0.374,0.403
		c-0.8,0.009-1.606,0-2.412,0.005c-0.438,0.004-0.459,0.012-0.442,0.436c0.009,0.395-0.176,0.894,0.086,1.152
		c0.246,0.232,0.73,0.063,1.107,0.068c0.559,0.015,1.116,0.015,1.666-0.004c0.274-0.004,0.387,0.078,0.369,0.359
		c-0.013,0.372-0.009,0.4-0.378,0.404c-0.804,0.008-1.608-0.002-2.412,0.004c-0.435,0-0.438,0.008-0.442,0.436
		c-0.013,0.498,0.004,0.996-0.004,1.492c-0.014,0.25,0.09,0.333,0.332,0.333c0.82-0.013,1.646-0.011,2.469-0.004
		c0.424,0.004,0.443,0.048,0.437,0.457c-0.004,0.228-0.091,0.302-0.308,0.302c-0.579-0.008-1.149-0.004-1.729-0.004
		c-0.55,0-1.107-0.015-1.656,0.008c-0.32,0.014-0.416-0.111-0.391-0.399c0.008-0.019,0-0.039,0-0.06
		C294.42,116.014,294.42,115.132,294.42,114.252z"/>
	<path fill="#FFFFFF" d="M234.165,117.343c-0.115,0-0.229-0.015-0.341,0c-0.402,0.062-0.674-0.099-0.924-0.419
		c-0.467-0.604-0.977-1.178-1.478-1.763c-0.196-0.229-1.024-0.39-1.271-0.248c-0.123,0.073-0.096,0.194-0.1,0.306
		c0,0.596,0.008,1.19-0.004,1.785c-0.004,0.333-0.029,0.333-0.431,0.346c-0.242,0.004-0.396-0.029-0.39-0.336
		c0.008-1.84,0.004-3.681,0.004-5.519c0-0.188,0.017-0.347,0.267-0.336c0.767,0.028,1.534-0.062,2.293,0.073
		c0.825,0.149,1.329,0.578,1.444,1.276c0.132,0.784-0.11,1.438-0.783,1.899c-0.128,0.084-0.264,0.158-0.415,0.25
		c0.733,0.865,1.465,1.719,2.19,2.572C234.21,117.268,234.189,117.305,234.165,117.343z M230.796,111.863
		c-0.151,0-0.308,0.004-0.459,0c-0.185-0.01-0.287,0.052-0.282,0.255c0.004,0.608,0,1.222,0,1.832c0,0.157,0.057,0.25,0.229,0.252
		c0.439,0.012,0.883,0.015,1.309-0.089c0.529-0.131,0.821-0.596,0.805-1.229c-0.021-0.559-0.274-0.838-0.856-0.965
		C231.289,111.868,231.047,111.857,230.796,111.863z"/>
	<path fill="#FFFFFF" d="M261.188,114.656c0.76,0.89,1.481,1.73,2.207,2.576c-0.701,0.238-0.918,0.181-1.336-0.32
		c-0.498-0.586-0.99-1.174-1.485-1.755c-0.205-0.242-0.997-0.382-1.269-0.241c-0.132,0.072-0.111,0.191-0.111,0.298
		c-0.008,0.558,0,1.112-0.008,1.667c-0.004,0.146,0.073,0.348-0.09,0.42c-0.188,0.09-0.41,0.061-0.615,0.014
		c-0.104-0.023-0.106-0.142-0.106-0.238c0-0.25,0-0.498,0-0.747c0-1.534,0-3.063,0-4.595c0-0.635-0.037-0.584,0.595-0.575
		c0.633,0.009,1.264-0.05,1.896,0.054c0.837,0.145,1.379,0.568,1.51,1.202c0.182,0.833-0.115,1.567-0.833,2.035
		C261.447,114.516,261.34,114.566,261.188,114.656z M259.921,111.863c-0.114,0-0.229,0.009-0.345-0.006
		c-0.301-0.03-0.406,0.094-0.395,0.396c0.021,0.533,0.016,1.07,0,1.604c-0.005,0.24,0.077,0.353,0.328,0.353
		c0.381-0.005,0.768,0,1.145-0.075c0.578-0.115,0.928-0.583,0.91-1.217c-0.012-0.575-0.291-0.878-0.901-1.004
		C260.413,111.863,260.171,111.863,259.921,111.863z"/>
	<path fill="#FFFFFF" d="M274.793,114.284c0,0.881,0,1.761-0.004,2.641c0,0.14,0.077,0.339-0.132,0.394
		c-0.197,0.054-0.427,0.07-0.615-0.017c-0.114-0.049-0.082-0.2-0.082-0.312c-0.004-0.73,0-1.457-0.004-2.186
		c0-0.47-0.009-0.474-0.478-0.478c-0.709-0.004-1.418-0.004-2.125,0c-0.451,0.004-0.455,0.008-0.459,0.483
		c-0.004,0.691,0,1.379-0.004,2.07c0,0.146,0.065,0.348-0.091,0.424c-0.188,0.092-0.418,0.057-0.618,0.016
		c-0.104-0.02-0.111-0.146-0.111-0.244c0-0.324,0-0.648,0-0.975c0-1.498,0-2.988,0.005-4.483c0-0.146-0.07-0.347,0.09-0.425
		c0.185-0.09,0.414-0.061,0.615-0.008c0.136,0.033,0.11,0.181,0.11,0.291c0.004,0.557,0,1.112,0.004,1.666
		c0.004,0.418,0.008,0.426,0.397,0.426c0.743,0.009,1.489,0.009,2.235,0c0.418,0,0.424-0.008,0.428-0.455
		c0.004-0.537,0.023-1.076-0.004-1.611c-0.018-0.354,0.186-0.354,0.431-0.345c0.39,0.009,0.406,0.004,0.406,0.364
		C274.801,112.441,274.793,113.363,274.793,114.284z"/>
	<path fill="#FFFFFF" d="M268.499,112.463c-0.644-0.418-1.251-0.64-1.911-0.684c-0.406-0.023-0.809,0-1.174,0.195
		c-0.35,0.182-0.541,0.461-0.51,0.881c0.029,0.401,0.26,0.617,0.615,0.742c0.457,0.157,0.939,0.182,1.403,0.297
		c0.242,0.061,0.484,0.11,0.722,0.184c1.485,0.471,1.293,2.158,0.478,2.796c-0.472,0.371-1.011,0.534-1.597,0.569
		c-0.754,0.048-1.48-0.096-2.194-0.346c-0.254-0.091-0.365-0.234-0.341-0.504c0.021-0.189,0.009-0.383,0.009-0.566
		c0.205-0.09,0.287,0.08,0.405,0.148c0.75,0.434,1.552,0.643,2.425,0.508c0.169-0.029,0.337-0.074,0.483-0.151
		c0.373-0.189,0.601-0.476,0.58-0.913c-0.021-0.417-0.201-0.658-0.703-0.79c-0.513-0.14-1.041-0.226-1.566-0.328
		c-0.287-0.054-0.555-0.147-0.809-0.286c-0.891-0.51-1.063-1.724-0.349-2.463c0.483-0.5,1.104-0.673,1.772-0.699
		c0.636-0.029,1.246,0.102,1.857,0.277c0.319,0.092,0.447,0.252,0.405,0.574C268.479,112.051,268.499,112.207,268.499,112.463z"/>
	<path fill="#FFFFFF" d="M237.102,117.343c-0.537,0-1.069-0.008-1.606,0.005c-0.255,0.006-0.382-0.053-0.382-0.346
		c0.008-1.838,0.008-3.676,0.004-5.516c-0.004-0.244,0.078-0.338,0.328-0.336c1.129,0.01,2.261,0.016,3.389-0.002
		c0.3-0.002,0.35,0.131,0.35,0.381s-0.05,0.393-0.345,0.386c-0.805-0.015-1.612-0.009-2.413-0.004
		c-0.476,0.004-0.479,0.008-0.482,0.468c-0.006,0.287,0.012,0.575-0.006,0.861c-0.012,0.246,0.082,0.338,0.328,0.334
		c0.825-0.01,1.646-0.008,2.471-0.002c0.438,0.002,0.447,0.037,0.447,0.447c-0.004,0.267-0.136,0.312-0.356,0.312
		c-0.804-0.008-1.612-0.006-2.417-0.001c-0.459,0.001-0.463,0.005-0.467,0.479c-0.006,0.441-0.006,0.881,0,1.324
		c0.004,0.442,0.008,0.448,0.435,0.45c0.783,0.009,1.571-0.002,2.354,0.005c0.438,0.004,0.451,0.041,0.451,0.446
		c0,0.271-0.131,0.315-0.356,0.312C238.251,117.339,237.677,117.343,237.102,117.343z"/>
	<path fill="#FFFFFF" d="M252.934,113.458c0,0.631-0.031,1.269,0.01,1.896c0.082,1.211,1.395,1.84,2.42,1.17
		c0.382-0.252,0.559-0.629,0.582-1.072c0.033-0.456,0.033-0.92,0.033-1.376c0.004-0.864,0.017-1.726,0-2.587
		c-0.013-0.365,0.213-0.328,0.447-0.336c0.233-0.006,0.418,0.004,0.405,0.32c-0.036,1.342,0.073,2.686-0.062,4.021
		c-0.131,1.241-0.883,1.919-2.129,1.971c-0.305,0.013-0.607-0.006-0.912-0.073c-0.886-0.199-1.395-0.761-1.57-1.627
		c-0.053-0.263-0.082-0.533-0.082-0.8c-0.012-1.133-0.008-2.259-0.004-3.389c0-0.144-0.069-0.339,0.132-0.394
		c0.2-0.056,0.422-0.065,0.619,0.012c0.118,0.05,0.09,0.201,0.09,0.313c0.005,0.65,0,1.303,0,1.953
		C252.922,113.458,252.93,113.458,252.934,113.458z"/>
	<path fill="#FFFFFF" d="M91.574,120.359c-0.271,0.004-0.538,0.004-0.804,0.008c-0.053-0.023-0.103-0.055-0.16-0.064
		c-1.317-0.264-1.748-1.26-1.784-2.222c-0.041-1.188-0.008-2.376-0.017-3.563c0-0.211,0.062-0.303,0.287-0.316
		c0.546-0.033,0.591-0.008,0.591,0.539c0.004,0.938-0.004,1.876,0.004,2.816c0.004,0.383,0.017,0.764,0.152,1.131
		c0.234,0.608,0.64,0.881,1.333,0.873c0.665-0.006,1.1-0.305,1.305-0.91c0.111-0.313,0.135-0.635,0.135-0.963
		c0-0.996-0.004-1.994,0.012-2.99c0-0.156-0.098-0.387,0.103-0.459c0.213-0.078,0.459-0.066,0.681,0.002
		c0.111,0.031,0.09,0.152,0.09,0.244c0,1.205,0.037,2.416-0.021,3.619c-0.058,1.145-0.603,1.963-1.801,2.209
		C91.644,120.318,91.611,120.342,91.574,120.359z"/>
	<path fill="#FFFFFF" d="M112.055,120.236c0.517-1.207,0.993-2.327,1.473-3.45c0.332-0.772,0.673-1.543,0.984-2.322
		c0.111-0.299,0.341-0.258,0.563-0.253c0.217,0.004,0.443-0.064,0.57,0.237c0.796,1.901,1.6,3.797,2.388,5.657
		c-0.049,0.147-0.139,0.125-0.205,0.129c-0.681,0.022-0.668,0.015-0.939-0.614c-0.468-1.106-0.123-0.864-1.325-0.892
		c-0.48-0.014-0.96-0.004-1.436,0c-0.546,0-0.546,0-0.747,0.48c-0.082,0.213-0.193,0.42-0.25,0.639
		c-0.086,0.313-0.258,0.442-0.583,0.394C112.416,120.219,112.28,120.236,112.055,120.236z M113.859,117.986c0.825,0,1.559,0,2.388,0
		c-0.394-0.975-0.763-1.895-1.132-2.813c-0.041,0-0.078,0.003-0.119,0.003C114.623,116.088,114.262,116.999,113.859,117.986z"/>
	<path fill="#FFFFFF" d="M330.688,111.191c-0.086,0.217-0.237,0.328-0.365,0.463c-0.682,0.725-1.362,1.451-2.061,2.162
		c-0.188,0.195-0.185,0.313-0.004,0.512c0.747,0.824,1.477,1.662,2.207,2.499c0.119,0.137,0.292,0.248,0.32,0.446
		c-0.1,0.109-0.219,0.052-0.324,0.069c-0.436,0.069-0.742-0.108-1.025-0.45c-0.631-0.768-1.313-1.492-1.98-2.254
		c-0.439,0.284-0.723,0.601-0.665,1.162c0.045,0.418,0.004,0.844,0.013,1.264c0.004,0.35-0.246,0.269-0.438,0.278
		c-0.201,0.009-0.401,0.022-0.386-0.274c0.013-0.135,0-0.271,0-0.403c0-1.683,0-3.371,0.009-5.056c0-0.146-0.07-0.348,0.09-0.418
		c0.188-0.08,0.419-0.063,0.62-0.006c0.131,0.037,0.103,0.189,0.103,0.299c0.005,0.439,0.005,0.883,0.005,1.322
		c0,0.457,0,0.916,0,1.371c0.188,0.084,0.245-0.085,0.323-0.171c0.75-0.791,1.524-1.562,2.224-2.399
		C329.73,111.157,330.141,111.105,330.688,111.191z"/>
	<path fill="#FFFFFF" d="M207.104,106.943c-0.094,0.049-0.105,0.064-0.127,0.068c-0.705,0.043-0.705,0.043-0.932-0.602
		c-0.102-0.286-0.205-0.575-0.299-0.866c-0.059-0.164-0.16-0.242-0.342-0.242c-0.705,0.009-1.414,0.009-2.125,0
		c-0.2,0-0.312,0.078-0.373,0.273c-0.105,0.347-0.258,0.681-0.348,1.032c-0.092,0.345-0.275,0.47-0.611,0.418
		c-0.096-0.018-0.189-0.004-0.26-0.004c-0.109-0.145-0.033-0.25,0-0.348c0.652-1.799,1.317-3.59,1.949-5.393
		c0.118-0.34,0.295-0.457,0.627-0.415c0.096,0.017,0.188,0.017,0.287,0c0.283-0.041,0.395,0.103,0.484,0.358
		c0.488,1.39,1.005,2.769,1.51,4.15C206.734,105.896,206.919,106.414,207.104,106.943z M204.389,101.752
		c-0.037-0.002-0.074-0.002-0.106-0.006c-0.332,0.931-0.664,1.859-1.025,2.859c0.734-0.029,1.402,0.045,2.13-0.053
		C205.045,103.583,204.716,102.668,204.389,101.752z"/>
	<path fill="#FFFFFF" d="M234.186,106.993c-0.104,0.011-0.177,0.026-0.25,0.028c-0.57,0.018-0.563,0.015-0.764-0.522
		c-0.146-0.39-0.145-0.907-0.488-1.13c-0.315-0.205-0.783-0.049-1.186-0.063c-0.361-0.008-0.723,0.014-1.092-0.004
		c-0.229-0.012-0.35,0.088-0.414,0.297c-0.106,0.326-0.227,0.65-0.346,0.976c-0.164,0.458-0.164,0.458-0.64,0.446
		c-0.095,0-0.188-0.018-0.274-0.023c-0.049-0.186,0.05-0.318,0.099-0.455c0.624-1.729,1.26-3.454,1.892-5.178
		c0.176-0.491,0.182-0.498,0.674-0.492c0.709,0.004,0.574-0.075,0.799,0.553c0.66,1.795,1.313,3.594,1.966,5.395
		C234.173,106.854,234.173,106.893,234.186,106.993z M230.365,104.581c0.73,0,1.398,0,2.13,0c-0.369-0.974-0.657-1.929-1.083-2.951
		C231.034,102.677,230.71,103.607,230.365,104.581z"/>
	<path fill="#FFFFFF" d="M224.872,117.302c-0.771,0.087-0.771,0.087-0.771-0.647c0-1.686,0-3.368,0.004-5.051
		c0-0.438,0.008-0.451,0.442-0.442c0.669,0.013,1.343-0.058,2.007,0.069c1.002,0.193,1.547,0.768,1.579,1.674
		c0.033,1.021-0.532,1.796-1.493,2.035c-0.39,0.098-0.795,0.108-1.197,0.106c-0.502,0-0.506,0.005-0.51,0.488
		c-0.004,0.479,0,0.957,0,1.437C224.93,117.086,224.941,117.2,224.872,117.302z M224.926,113.045h0.004c0,0.344,0,0.688,0,1.033
		c0,0.154,0.055,0.259,0.227,0.263c0.464,0.013,0.923,0.021,1.365-0.126c0.518-0.177,0.82-0.691,0.769-1.277
		c-0.041-0.543-0.354-0.873-0.933-1.004c-0.34-0.076-0.686-0.059-1.029-0.074c-0.287-0.016-0.428,0.074-0.406,0.383
		C224.941,112.508,224.926,112.777,224.926,113.045z"/>
	<path fill="#FFFFFF" d="M279.995,114.247c0-0.899,0.008-1.798-0.009-2.699c-0.004-0.294,0.086-0.411,0.39-0.396
		c0.687,0.039,1.379-0.053,2.063,0.078c0.996,0.19,1.552,0.771,1.584,1.67c0.037,1.018-0.533,1.802-1.489,2.039
		c-0.435,0.105-0.878,0.105-1.316,0.105c-0.395,0.002-0.397,0.012-0.401,0.42c-0.01,0.518-0.018,1.032,0,1.551
		c0.017,0.312-0.147,0.334-0.391,0.332c-0.242-0.009-0.447,0.017-0.439-0.35C280.007,116.084,279.995,115.165,279.995,114.247z
		 M280.813,113.091L280.813,113.091c0,0.326,0.004,0.651,0,0.979c0,0.146,0.035,0.266,0.217,0.27
		c0.46,0.014,0.928,0.021,1.365-0.123c0.521-0.165,0.838-0.703,0.789-1.27c-0.055-0.555-0.354-0.893-0.933-1.01
		c-0.205-0.043-0.418-0.069-0.628-0.069c-0.959,0-0.795-0.101-0.813,0.764C280.807,112.786,280.813,112.939,280.813,113.091z"/>
	<path fill="#FFFFFF" d="M209.787,104.311c0,0.709,0,1.418,0,2.129c0,0.586,0,0.586-0.41,0.59c-0.436,0.005-0.436,0.005-0.436-0.619
		c0-1.362,0-2.725,0-4.083c0-0.095,0-0.19,0-0.286c-0.012-0.43-0.012-0.434-0.447-0.439c-0.479-0.004-0.959-0.009-1.436,0.006
		c-0.259,0.006-0.332-0.097-0.328-0.34c0.008-0.228-0.004-0.408,0.315-0.404c1.533,0.014,3.067,0.011,4.603,0
		c0.293-0.004,0.346,0.119,0.35,0.378c0.004,0.267-0.07,0.377-0.357,0.366c-0.496-0.019-0.996,0.009-1.496-0.01
		c-0.268-0.009-0.369,0.074-0.36,0.355C209.795,102.738,209.787,103.523,209.787,104.311z"/>
	<path fill="#FFFFFF" d="M74.216,117.216c0-0.88,0-1.76-0.008-2.642c-0.004-0.266,0.065-0.377,0.353-0.374
		c0.841,0.015,1.682,0.015,2.527,0c0.287-0.005,0.349,0.116,0.345,0.377c-0.004,0.241-0.025,0.397-0.336,0.386
		c-0.554-0.02-1.112,0.004-1.666-0.008c-0.242-0.004-0.345,0.081-0.336,0.331c0.012,0.364,0.016,0.728-0.004,1.089
		c-0.016,0.295,0.131,0.355,0.382,0.35c0.496-0.01,0.997-0.01,1.493,0c0.349,0.008,0.34,0.034,0.361,0.418
		c0.013,0.295-0.115,0.353-0.369,0.344c-0.5-0.014-1.001,0.008-1.498-0.008c-0.271-0.008-0.373,0.076-0.369,0.356
		c0.017,0.668,0.008,1.337,0,2.008c0,0.138,0.074,0.345-0.147,0.375c-0.218,0.029-0.459,0.074-0.669-0.041
		c-0.106-0.062-0.058-0.209-0.058-0.321C74.212,118.977,74.216,118.096,74.216,117.216z"/>
	<path fill="#FFFFFF" d="M124.617,114.96c-0.48,0-0.903,0-1.321,0c-0.537,0.004-0.545,0.004-0.545,0.522c0,1.363,0,2.724,0,4.086
		c0,0.135-0.008,0.268,0,0.4c0.017,0.199-0.078,0.279-0.267,0.27c-0.119-0.008-0.234-0.008-0.349,0
		c-0.201,0.01-0.267-0.096-0.259-0.28c0.004-0.138,0-0.272,0-0.403c0-1.382,0-2.761,0-4.142c-0.004-0.44-0.012-0.445-0.447-0.453
		c-0.381-0.004-0.767-0.01-1.153,0.003c-0.295,0.01-0.279-0.18-0.279-0.38c0-0.201-0.012-0.382,0.283-0.38
		c1.358,0.007,2.72,0.007,4.082,0c0.209,0,0.263,0.1,0.258,0.281C124.612,114.618,124.617,114.75,124.617,114.96z"/>
	<path fill="#FFFFFF" d="M301.977,114.648c0,0.746,0.004,1.492-0.004,2.24c0,0.146,0.069,0.353-0.091,0.422
		c-0.192,0.082-0.427,0.069-0.618,0.002c-0.156-0.052-0.106-0.229-0.106-0.356c-0.005-0.767,0-1.534,0-2.302
		c0-0.786-0.017-1.571,0.004-2.357c0.008-0.305-0.099-0.402-0.394-0.393c-0.498,0.02-0.998-0.004-1.494,0.007
		c-0.319,0.012-0.313-0.185-0.315-0.41c-0.004-0.229,0.049-0.351,0.315-0.349c1.531,0.008,3.068,0.008,4.6-0.002
		c0.273-0.002,0.32,0.125,0.313,0.351c0,0.217,0.021,0.427-0.309,0.412c-0.438-0.019-0.882-0.007-1.325-0.002
		c-0.569,0-0.569,0.002-0.573,0.551C301.977,113.191,301.977,113.919,301.977,114.648z"/>
	<path fill="#FFFFFF" d="M209.832,114.65c0,0.746,0.004,1.494,0,2.238c-0.004,0.146,0.064,0.353-0.094,0.42
		c-0.193,0.084-0.42,0.063-0.62,0.006c-0.132-0.037-0.103-0.189-0.103-0.304c-0.004-0.67-0.004-1.342-0.004-2.011
		c0-0.898-0.009-1.797,0.008-2.7c0.004-0.299-0.095-0.405-0.395-0.397c-0.497,0.021-0.993-0.004-1.493,0.01
		c-0.315,0.01-0.319-0.174-0.319-0.406c0-0.22,0.028-0.355,0.312-0.354c1.526,0.008,3.065,0.008,4.591,0
		c0.268-0.002,0.324,0.115,0.32,0.348c-0.012,0.218,0.016,0.423-0.313,0.413c-0.496-0.013-0.996,0.009-1.492-0.007
		c-0.287-0.01-0.41,0.074-0.406,0.389C209.85,113.081,209.832,113.865,209.832,114.65z"/>
	<path fill="#FFFFFF" d="M235.152,103.939c0-0.849,0-1.689,0-2.53c0.005-0.536,0.005-0.536,0.406-0.542
		c0.438-0.004,0.438-0.004,0.438,0.566c0.005,1.362,0.005,2.724,0.005,4.082c0,0.116-0.005,0.231,0,0.349
		c0.008,0.429,0.012,0.436,0.451,0.437c0.763,0.004,1.529,0.018,2.302-0.004c0.332-0.012,0.308,0.176,0.315,0.396
		c0.008,0.229-0.041,0.346-0.313,0.342c-1.092-0.014-2.188-0.012-3.277,0c-0.246,0-0.332-0.087-0.332-0.337
		C235.161,105.779,235.152,104.859,235.152,103.939z"/>
	<path fill="#FFFFFF" d="M277.396,117.343c-0.287,0-0.573-0.004-0.86,0.003c-0.218,0.006-0.36-0.023-0.365-0.302
		c0-0.274,0.091-0.362,0.365-0.366c0.435-0.004,0.446-0.025,0.446-0.431c0.004-1.339,0.004-2.681,0-4.017
		c0-0.391-0.012-0.391-0.414-0.418c-0.377-0.029-0.401-0.063-0.394-0.383c0-0.189,0.069-0.275,0.271-0.273
		c0.629,0.004,1.26,0.004,1.893,0c0.246-0.006,0.273,0.131,0.273,0.328s-0.036,0.343-0.278,0.328c-0.073-0.006-0.151,0.002-0.229,0
		c-0.209-0.015-0.304,0.065-0.304,0.295c0.013,1.416,0.017,2.832,0,4.248c0,0.311,0.147,0.344,0.386,0.332
		c0.205-0.01,0.432-0.049,0.432,0.293c0,0.269-0.078,0.388-0.356,0.367C277.973,117.328,277.686,117.343,277.396,117.343z"/>
	<path fill="#FFFFFF" d="M213.754,107.021c-0.328,0-0.652-0.004-0.98,0.002c-0.229,0.006-0.222-0.15-0.226-0.311
		c0-0.16,0.009-0.283,0.226-0.307c0.582-0.068,0.578-0.083,0.578-0.662c0-1.243,0.004-2.489,0-3.734c0-0.479,0-0.49-0.483-0.512
		c-0.196-0.012-0.328-0.031-0.323-0.277c0.004-0.234,0.051-0.354,0.319-0.35c0.606,0.013,1.223,0.011,1.834,0.004
		c0.233-0.004,0.286,0.105,0.291,0.316c0,0.221-0.077,0.32-0.3,0.303c-0.078-0.005-0.151,0.006-0.229,0
		c-0.242-0.028-0.288,0.105-0.283,0.313c0.004,0.688,0.004,1.379,0.004,2.067c0,0.671-0.004,1.343,0,2.01
		c0,0.485,0,0.492,0.477,0.522c0.189,0.007,0.332,0.02,0.332,0.275c0,0.231-0.053,0.356-0.319,0.344
		C214.369,107.012,214.063,107.021,213.754,107.021L213.754,107.021z"/>
	<path fill="#FFFFFF" d="M127.222,117.18c0-0.857-0.004-1.72,0-2.576c0-0.129-0.053-0.313,0.099-0.356
		c0.217-0.06,0.456-0.081,0.668,0.019c0.115,0.053,0.078,0.205,0.078,0.316c0,1.777,0,3.555,0,5.335c0,0.015,0,0.037,0,0.056
		c0.012,0.197-0.082,0.254-0.271,0.266c-0.566,0.033-0.575,0.031-0.575-0.533C127.218,118.863,127.222,118.021,127.222,117.18z"/>
	<path fill="#FFFFFF" d="M111.308,98.005c-0.119,0.242-0.291,0.269-0.476,0.343C110.914,98.141,111.049,98.07,111.308,98.005z"/>
	<path fill="#FFFFFF" d="M109.995,97.471c0.057,0,0.115-0.003,0.168-0.005c-0.037,0.132-0.106,0.238-0.213,0.32
		C109.859,97.667,109.958,97.573,109.995,97.471z"/>
	<path fill="#FFFFFF" d="M108.612,97.583c0.037-0.006,0.074-0.008,0.107-0.001c0.09,0.057,0.119,0.195,0.063,0.209
		C108.686,97.811,108.629,97.689,108.612,97.583z"/>
	<path fill="#FFFFFF" d="M110.787,97.865c-0.074,0.059-0.152,0.117-0.221,0.18l-0.025-0.021c0.025-0.073,0.045-0.147,0.062-0.222
		C110.651,97.866,110.713,97.885,110.787,97.865z"/>
	<polygon fill="#FFFFFF" points="107.96,98.339 107.939,98.307 107.977,98.316 	"/>
	<path fill="#FFFFFF" d="M108.013,97.924c0.037-0.035,0.07-0.035,0.09,0.012c0.004,0.01-0.004,0.032-0.008,0.047
		c-0.024-0.022-0.045-0.045-0.069-0.066C108.03,97.917,108.013,97.924,108.013,97.924z"/>
	<path fill="#FFFFFF" d="M110.45,98.154c-0.021,0.016-0.041,0.027-0.062,0.043c0.012-0.021,0.029-0.043,0.041-0.061L110.45,98.154z"
		/>
	<path fill="#FFFFFF" d="M107.968,97.741c0.049,0.054,0.106,0.103,0.045,0.183c0,0,0.017-0.007,0.013-0.007
		c-0.062-0.004-0.111-0.04-0.123-0.106C107.923,97.786,107.948,97.762,107.968,97.741z"/>
	<path fill="#FFFFFF" d="M110.565,98.045c-0.037,0.037-0.078,0.074-0.115,0.109l-0.021-0.018c0.037-0.039,0.078-0.076,0.111-0.113
		L110.565,98.045z"/>
	<path fill="#FFFFFF" d="M110.787,97.865c-0.074,0.02-0.135,0.001-0.185-0.063c0.053-0.048,0.103-0.094,0.156-0.14
		c0.033,0.033,0.066,0.064,0.099,0.102C110.836,97.798,110.807,97.832,110.787,97.865z"/>
</g>
</svg>
